PathFileType	4	(X/Y/Z)	C:\Users\°ÂÌØÂü\Desktop\20210112\bx_n_5_502-Unnamed.trc
DataRate	CameraRate	NumFrames	NumMarkers	Units	OrigDataRate	OrigDataStartFrame	OrigNumFrames
50.00	50.00	       4	0	mm	50.00	367	       489
Frame#	Time	
		

367	7.320	-431.28143	283.65356	1267.17700	-771.66718	237.65701	1023.32074	-799.87714	147.44540	568.63495	-866.96790	285.57306	863.93475	-752.67255	-5.70987	804.36664	-403.56360	-41.61886	1277.32800	-845.46552	279.43182	729.42450	-849.98859	255.92386	625.82379	-756.96124	221.86685	791.60059	-757.97571	13.10581	524.69452	-835.62708	251.73267	562.16913	-772.64044	209.95392	535.34875	-951.04657	90.19800	1088.37793	-722.27887	159.20416	223.09952	-774.36249	232.22813	201.29193	-882.75366	295.98529	144.71449	-675.83533	51.52604	162.73051	-677.83685	175.91748	163.70695	-595.00238	219.22211	174.09966	-660.05212	298.71872	156.30717	-623.52850	306.65140	158.51184	-558.14032	253.54736	163.49922	-527.94916	304.34988	146.55673	-240.33499	135.44154	1503.45886	-801.16113	69.17202	564.54645	-856.05817	263.98123	482.49088	-518.13208	-72.48594	142.94872	-549.37994	-22.59110	162.15727				-768.79523	-5.46723	1001.02594	-795.36981	33.35034	172.04552	-800.00299	183.70842	180.25452	-836.97894	-53.57279	471.71579	-600.66095	28.90530	166.99399	-763.24957	-24.76739	202.24385	-875.95648	-78.79716	141.44162	-729.02997	64.67330	219.54904	-817.02094	-38.27438	559.52466	-605.12640	-72.71609	157.06483	-647.76849	-67.75407	161.55400	-834.70142	-66.73042	745.81085										-840.25311	-73.46216	861.51184	-820.14215	-40.18941	606.85632	
368	7.340	-435.72260	283.91040	1275.64233	-771.00403	238.03020	1025.09070	-798.97137	147.81261	568.42957	-865.63910	285.79001	864.30768	-750.68164	-5.70148	804.69177	-407.90973	-42.41029	1287.11365	-844.27167	279.87399	730.17609	-848.94775	255.89299	626.28003	-755.43622	222.15877	792.00079	-756.93549	12.72171	524.91119	-834.29694	251.28502	561.93665	-772.24536	210.30367	535.54572	-950.72638	90.30576	1088.01599	-722.35980	159.32423	223.10318	-774.36249	232.22813	201.29193	-882.76099	295.98401	144.73616	-675.83533	51.52604	162.73051	-677.71692	175.67882	163.93924	-594.96851	219.38327	174.18163	-659.93268	298.68182	156.27112	-623.37256	306.70474	158.51904	-558.14575	253.87178	163.46353	-528.03265	304.22031	146.59911	-249.02699	135.08940	1516.57764	-800.81494	68.88228	564.52606	-855.08044	264.23889	482.62256	-518.10779	-72.66222	142.98416	-549.50385	-22.44198	162.11769				-767.52100	-5.26461	1002.34631	-795.47064	33.18000	171.91968	-799.67773	183.80113	180.14110	-836.09497	-53.96563	472.27155	-600.96033	29.04609	166.93329	-763.54950	-24.95461	202.39697	-875.79388	-78.47688	141.16841	-729.57690	64.13142	219.56017	-816.07935	-38.53399	559.67188	-605.08746	-72.70231	157.19580	-647.62592	-67.74294	161.36023	-833.25781	-67.00381	746.54938										-838.40582	-73.18360	862.49695	-819.33612	-40.25277	607.17212	
369	7.360	-439.50400	285.34454	1286.12073	-769.51593	238.59323	1026.60046	-798.08099	148.02103	568.79193	-864.23810	285.71490	864.69592	-749.12726	-5.52662	804.71899	-412.44843	-42.41171	1296.92578	-842.85522	280.24207	730.55713	-847.60767	255.77573	626.11328	-754.25848	222.47932	792.60834	-756.31598	12.92899	524.49023	-834.01343	251.75644	562.61261	-771.30225	210.52589	535.26642	-950.57550	90.12961	1087.58643	-722.11041	159.41199	222.92897	-774.25311	232.13123	201.15851	-882.70166	296.05136	144.71140	-675.83533	51.52604	162.73051	-677.85681	175.97290	163.82790	-595.00128	219.30322	174.28867	-660.01105	298.71393	156.15254	-623.52850	306.65140	158.51184	-558.15643	253.63107	163.75040	-528.01837	304.38110	146.59474	-258.13748	134.96790	1530.33533	-800.30652	68.98836	564.62878	-854.19434	264.32108	482.92456	-517.99292	-72.48872	142.89325	-549.68719	-22.47901	162.11250				-766.04321	-4.58050	1003.86261	-795.71759	32.98820	171.81816	-799.75421	183.78362	180.27484	-835.39185	-53.84978	472.14987	-600.79364	28.65821	166.90927	-763.81354	-25.07867	202.32802	-875.87097	-78.64214	141.18979	-729.52234	64.04626	219.67204	-814.85150	-38.54471	559.83636	-605.00305	-72.65777	157.08316	-647.72894	-67.84995	161.53061	-831.72583	-66.42346	746.39154										-835.08923	-73.98563	863.46289	-817.80133	-40.01455	607.82446	
370	7.380	-443.88806	284.91260	1296.26563	-768.31445	238.94427	1028.45007	-797.37476	147.69508	568.87488	-862.03693	285.57605	865.11725	-747.12604	-4.62471	804.98053	-417.30722	-42.94069	1307.97827	-840.96808	279.56052	730.96771	-846.52795	256.01016	626.46631	-752.37225	222.63985	792.94202	-755.66534	13.05488	524.93115	-832.75116	252.47437	562.98138	-770.27429	211.14043	535.72589	-950.16547	90.74133	1086.96155	-721.89386	159.41437	223.20305	-774.18408	232.38634	201.11403	-882.61548	296.07947	144.67224	-675.91174	51.58257	162.89064	-677.73456	175.93512	163.97340	-595.07666	219.62329	174.35695	-660.13049	298.75085	156.18860	-623.46478	306.70795	158.42354	-558.13104	253.72827	163.71707	-528.12964	304.28000	146.52356	-267.77771	134.60529	1544.61780	-798.95471	69.13013	565.10333	-853.74994	264.45187	483.04333	-518.07227	-72.72788	143.11491	-549.76660	-22.39638	162.05740				-764.40857	-4.32779	1005.84357	-795.82379	32.83571	171.64204	-799.62335	183.71239	180.23528	-834.51599	-54.40009	472.96524	-600.87384	28.83302	167.19891	-763.90613	-25.55038	202.42461	-875.88751	-78.54328	141.29303	-729.55829	63.97454	219.79506	-814.11310	-38.15654	560.03180	-604.91211	-72.63047	157.19917	-647.85876	-67.86643	161.51035	-829.60321	-66.15341	747.21643										-832.30786	-73.56712	864.03326	-816.83856	-40.12607	608.25269	
